<?xml version="1.0" encoding="UTF-8" standalone="no"?>
<svg
   xmlns:dc="http://purl.org/dc/elements/1.1/"
   xmlns:cc="http://creativecommons.org/ns#"
   xmlns:rdf="http://www.w3.org/1999/02/22-rdf-syntax-ns#"
   xmlns:svg="http://www.w3.org/2000/svg"
   xmlns="http://www.w3.org/2000/svg"
   id="svg8"
   version="1.1"
   viewBox="0 0 100 100"
   height="100mm"
   width="100mm">
  <defs
     id="defs2" />
  <metadata
     id="metadata5">
    <rdf:RDF>
      <cc:Work
         rdf:about="">
        <dc:format>image/svg+xml</dc:format>
        <dc:type
           rdf:resource="http://purl.org/dc/dcmitype/StillImage" />
        <dc:title></dc:title>
      </cc:Work>
    </rdf:RDF>
  </metadata>
  <g
     transform="translate(0,-197)"
     id="layer1">
    <path
       style="fill:#171717;stroke-width:0.83973551"
       d="m 33.324421,292.56683 c -5.256589,-0.42778 -10.295479,-1.12405 -11.19752,-1.54722 -1.007549,-0.4727 -2.019493,-2.25763 -2.623854,-4.62817 -4.72652,-18.53967 -5.033652,-19.35274 -7.310609,-19.35274 -3.9089457,0 -7.1420979,-1.07607 -7.1420979,-2.37711 0,-0.6987 1.7140771,-3.33821 3.8090365,-5.86556 6.4683504,-7.80335 6.5659114,-6.60723 -1.1334667,-13.89516 l -6.85925727,-6.49269 7.86614417,-2.99723 c 4.3263722,-1.64848 10.2972252,-4.01163 13.2685782,-5.25149 3.006754,-1.25462 6.185421,-2.03514 7.168076,-1.76011 1.111642,0.31121 2.727165,2.44078 4.361561,5.74962 2.992666,6.05857 4.100004,6.62151 12.536671,6.37332 4.839525,-0.14255 5.876484,-0.47741 7.858739,-2.53912 3.275027,-3.40632 12.83219,-16.00095 18.513578,-24.39761 2.677469,-3.95708 5.985965,-8.3577 7.352211,-9.77917 2.189751,-2.27818 2.721836,-2.46404 4.49022,-1.56837 1.103363,0.55887 1.986111,1.32346 1.961635,1.69911 -0.02406,0.37565 -2.359404,2.67508 -5.188739,5.10987 -5.428894,4.67178 -26.324423,30.289 -25.475755,31.23242 1.094305,1.21647 5.914444,0.43759 9.252533,-1.49508 3.392421,-1.96417 10.476874,-7.43387 25.042012,-19.33427 3.724931,-3.04346 7.309252,-5.53357 7.965149,-5.53357 1.105773,0 1.295386,0.32828 1.511098,2.61502 0.07977,0.84481 -4.825223,4.39877 -21.623702,15.66797 -8.536066,5.72639 -10.819737,8.27809 -7.40853,8.27809 1.993843,0 10.580998,7.93189 13.595786,12.55833 l 2.323348,3.56533 -2.562838,3.45507 c -3.560937,4.8006 -10.390782,9.92486 -13.113673,9.83884 -2.067688,-0.0652 -2.372051,0.40938 -4.456624,6.95149 -2.414011,7.57601 -3.712982,9.03175 -12.862049,14.41415 -4.321889,2.54256 -4.544675,2.55715 -19.917661,1.30604 z m 15.987403,-3.51928 c 1.668982,-3.58775 5.076608,-16.48294 5.114085,-19.35274 0.01807,-1.48703 0.24172,-1.8404 0.677721,-1.07671 0.35686,0.62519 1.21167,0.8966 1.899567,0.60314 0.75499,-0.32192 1.232501,-0.0706 1.204657,0.63405 -0.116799,2.95861 0.270015,4.32617 1.068264,3.77769 0.549667,-0.37767 0.766734,0.1663 0.597347,1.49712 -0.146297,1.14971 -0.624497,2.02463 -1.062543,1.94432 -0.438051,-0.0803 -1.212545,0.23793 -1.721123,0.707 -0.592802,0.54692 -1.094814,0.54702 -1.398758,3.4e-4 -0.260682,-0.46902 -0.08489,-0.99699 0.39106,-1.17331 0.477929,-0.17702 0.739395,-1.69693 0.58422,-3.39577 l -0.280851,-3.07516 -1.370434,3.41417 c -0.753726,1.8778 -1.18774,3.74275 -0.964473,4.14434 0.223361,0.40158 0.04184,0.98039 -0.403518,1.28625 -1.580996,1.0862 -0.774408,2.1028 1.608631,2.02751 1.329943,-0.0422 2.757416,-0.71263 3.172164,-1.49021 0.530007,-0.99368 0.610229,-0.55873 0.270015,1.4637 -0.500357,2.97387 0.909447,4.1765 1.816307,1.54939 0.252256,-0.73042 0.925731,-1.32804 1.496857,-1.32804 1.125881,0 4.366347,-6.7394 4.366347,-9.081 0,-0.79142 0.333984,-1.66842 0.742199,-1.94887 1.762151,-1.21065 -7.312808,-14.20483 -9.321885,-13.34778 -0.965857,0.41199 -1.10526,-0.0817 -0.736418,-2.60836 0.544308,-3.72856 -0.405054,-3.97435 -2.83508,-0.734 -0.982716,1.31039 -3.796337,4.82487 -6.252489,7.80991 -2.456157,2.98505 -4.63754,5.99667 -4.847503,6.6925 -0.328023,1.08697 -0.674679,1.09166 -2.462352,0.0334 -2.900372,-1.71745 -22.162079,-1.93733 -22.679054,-0.259 -0.198975,0.6463 0.383863,1.38115 1.308993,1.65005 0.917303,0.26669 1.461821,0.85544 1.210016,1.30836 -0.251955,0.45293 -0.06442,1.35056 0.416614,1.99475 0.480942,0.64419 0.780579,2.12081 0.665889,3.28136 -0.121913,1.23378 0.178807,2.02782 0.724409,1.91197 0.616582,-0.13084 0.818508,0.82714 0.595511,2.82583 -0.263093,2.3581 0.04244,3.31961 1.387107,4.36671 2.165158,1.68581 3.057837,1.10212 3.057837,-1.99935 0,-2.25134 0.200781,-2.40001 2.78758,-2.06431 2.531501,0.3286 2.785382,0.61722 2.763378,3.14235 -0.02107,2.27431 -0.168572,2.50519 -0.817514,1.26798 -0.856046,-1.63228 -3.140528,-1.21049 -3.140528,0.57984 0,1.4307 3.583722,3.2308 4.48191,2.25128 0.382267,-0.41688 1.949445,-0.42686 3.482608,-0.0235 1.533194,0.40469 2.429184,0.78269 1.991137,0.84001 -0.774468,0.1014 1.134189,1.80713 2.052305,1.83424 0.252556,0.006 0.301592,-1.18168 0.108669,-2.64256 -0.285368,-2.16164 -0.06683,-2.65612 1.173321,-2.65612 0.838222,0 1.916032,-0.43575 2.395164,-0.96837 0.479137,-0.53263 1.536416,-0.81823 2.349537,-0.63473 1.162151,0.26235 0.924677,0.61043 -1.11008,1.62723 -2.676591,1.33755 -3.292601,3.26584 -1.632738,5.11105 1.668983,1.85528 3.739467,1.15407 5.076005,-1.71909 z m -9.217549,-8.55503 c 0,-0.42592 0.93115,-1.24603 2.069248,-1.82246 1.487743,-0.75355 1.922114,-1.47771 1.545717,-2.5769 -0.410079,-1.19754 -0.313515,-1.29712 0.445663,-0.45961 0.761101,0.83965 0.742561,1.37271 -0.08639,2.4831 -1.357306,1.818 -3.974205,3.38246 -3.974205,2.37587 z m -15.132594,-1.45584 c 0,-0.24361 1.075219,-1.06077 2.389359,-1.81622 1.31414,-0.75543 2.389358,-1.96093 2.389358,-2.67884 0,-1.71969 1.294243,-1.67685 1.89472,0.0625 0.259782,0.75242 1.821301,2.00462 3.470147,2.78266 1.696647,0.80064 2.535534,1.59508 1.932709,1.83036 -0.585849,0.22855 -2.420726,-0.26402 -4.077548,-1.09438 -2.790109,-1.39861 -3.196337,-1.40429 -5.505564,-0.0769 -1.371243,0.78826 -2.493181,1.23401 -2.493181,0.99053 z m 30.265215,-13.62117 c 0,-1.17923 0.497832,-1.91829 1.292196,-1.91829 1.106106,0 1.138552,0.2232 0.225464,1.54939 -0.58675,0.85217 -1.168265,1.71541 -1.292196,1.91833 -0.124018,0.20278 -0.225464,-0.49435 -0.225464,-1.54943 z m 0.922209,-5.45975 c 0,-1.21742 0.180616,-1.71541 0.401715,-1.10672 0.220951,0.60869 0.220951,1.60473 0,2.21342 -0.220951,0.60869 -0.401715,0.11077 -0.401715,-1.1067 z m 1.46715,23.76775 c 0,-1.16015 -1.82353,-0.83265 -3.58017,0.64303 -1.346742,1.13134 -1.410227,1.4577 -0.416432,2.14048 1.174494,0.80692 3.996602,-1.15859 3.996602,-2.78351 z m 17.211691,-18.12677 c 7.633785,-5.73512 9.867697,-7.80925 9.867697,-9.16194 0,-2.2656 -11.097972,-14.0928 -13.285375,-14.15832 -1.919645,-0.0575 -12.201126,8.11068 -12.201126,9.6932 0,0.37633 1.391142,2.32627 3.091429,4.33317 1.700292,2.0069 4.29871,5.43038 5.774286,7.60771 1.47558,2.17732 2.90164,3.97109 3.169064,3.98615 0.267309,0.0167 1.88021,-1.01995 3.584025,-2.29997 z m -26.43776,-7.11304 c 2.591524,-3.08658 4.562763,-5.76521 4.380496,-5.95254 -0.182419,-0.18739 -8.423066,-0.62759 -18.312885,-0.97842 l -17.981522,-0.63784 -4.120052,6.17811 c -4.6625827,6.99165 -5.2819645,9.21525 -1.798934,6.45822 1.592012,-1.26017 2.420905,-1.50442 2.638845,-0.77761 0.205898,0.68719 2.959704,1.18556 7.833664,1.41775 4.133748,0.1971 10.203938,0.6364 13.489318,0.97662 3.425233,0.35467 6.652906,0.258 7.566292,-0.22688 0.876093,-0.465 3.713254,-3.37081 6.304778,-6.45739 z m 8.406538,-8.23246 c 0.644396,-0.45302 1.000205,-1.01419 0.790722,-1.24706 -0.842377,-0.93643 -14.987051,-3.55341 -19.061192,-3.52665 -2.838904,0.02 -3.809578,-0.20847 -2.78758,-0.65269 2.322261,-1.00904 6.172655,-0.93542 9.03212,0.17267 1.913023,0.74133 2.810307,0.71506 3.702865,-0.10842 2.486227,-2.29374 1.170942,-2.85696 -5.790903,-2.47977 -5.20499,0.2821 -8.436005,1.01955 -12.764845,2.91371 -3.187758,1.39487 -5.671818,2.94989 -5.520194,3.45557 0.172185,0.57419 5.638525,1.03698 14.556861,1.23247 7.854644,0.172 14.639576,0.4566 15.077623,0.63212 1.278197,0.51205 1.529312,0.47644 2.764523,-0.39195 z m -25.46341,-3.57605 c 0.65707,-0.47205 1.55306,-0.85825 1.991107,-0.85825 0.438047,0 0.258879,0.3862 -0.398221,0.85825 -0.65707,0.47204 -1.553091,0.85827 -1.991137,0.85827 -0.438047,0 -0.258879,-0.38623 0.398251,-0.85827 z m -4.778747,-1.30022 c 8.994945,-4.28763 9.304997,-4.6683 7.321205,-8.98915 -0.867092,-1.88864 -2.332556,-4.19396 -3.256601,-5.12292 -1.658749,-1.66762 -1.788731,-1.65269 -10.239519,1.17658 -10.189068,3.4112 -15.4909001,5.44889 -16.3764152,6.29393 -0.9191992,0.87725 5.838403,6.61372 7.7910092,6.61372 1.06953,0 1.544301,0.50225 1.399148,1.48006 -0.493254,3.32292 4.476733,2.78273 13.361173,-1.45222 z m 36.717762,0.63619 c 4.332635,-2.70506 4.87721,-3.76283 1.937224,-3.76283 -4.183295,0 -8.80533,3.66978 -7.062355,5.60734 0.768356,0.85414 0.849571,0.82492 5.125131,-1.84451 z m -6.499958,-1.61725 c 1.719767,-1.82583 0.407192,-2.557 -2.937035,-1.636 -1.896138,0.52218 -3.073855,1.41136 -3.253293,2.45624 -0.244126,1.4223 0.06893,1.55619 2.3809,1.01777 1.464198,-0.34099 3.178426,-1.16809 3.809428,-1.83801 z m 39.922413,-26.96705 c 0.847313,-0.50409 1.540568,-1.30094 1.540568,-1.77075 0,-1.46658 -2.076208,-0.93563 -3.584054,0.91651 -1.583312,1.94488 -0.529917,2.38522 2.043486,0.85424 z M 83.118712,205.48411 c 1.641229,-2.19837 0.09302,-2.70657 -1.807996,-0.59346 -1.404659,1.56148 -1.497642,1.94291 -0.47363,1.94291 0.700781,0 1.727503,-0.60724 2.281626,-1.34945 z"
       id="path39" />
  </g>
</svg>
