<?xml version="1.0" encoding="UTF-8" standalone="no"?>
<svg
   xmlns:dc="http://purl.org/dc/elements/1.1/"
   xmlns:cc="http://creativecommons.org/ns#"
   xmlns:rdf="http://www.w3.org/1999/02/22-rdf-syntax-ns#"
   xmlns:svg="http://www.w3.org/2000/svg"
   xmlns="http://www.w3.org/2000/svg"
   id="svg8"
   version="1.1"
   viewBox="0 0 100 100"
   height="100mm"
   width="100mm">
  <defs
     id="defs2" />
  <metadata
     id="metadata5">
    <rdf:RDF>
      <cc:Work
         rdf:about="">
        <dc:format>image/svg+xml</dc:format>
        <dc:type
           rdf:resource="http://purl.org/dc/dcmitype/StillImage" />
        <dc:title></dc:title>
      </cc:Work>
    </rdf:RDF>
  </metadata>
  <g
     transform="translate(0,-197)"
     id="layer1">
    <path
       style="fill:#000000;stroke-width:0.91931355"
       d="m 37.197372,295.31599 c -21.123222,-0.5215 -23.006639,-0.70836 -27.2207667,-2.70057 -5.4285,-2.56633 -8.6347994,-5.47272 -8.6347994,-7.8271 0,-2.5588 1.9776201,-2.90087 7.335655,-1.26885 4.6492291,1.41611 16.2654681,2.04814 16.2654681,0.88497 0,-0.31635 -1.285628,-2.0772 -2.856973,-3.91279 -5.165117,-6.03378 -8.095991,-13.98013 -9.20627,-24.96048 -0.990677,-9.79739 -0.979256,-9.91894 1.09155,-11.63879 1.913946,-1.58962 3.304928,-1.69016 16.290304,-1.17725 7.808735,0.30826 21.55036,0.83159 30.53692,1.16261 l 16.339211,0.60183 1.361588,2.90407 c 1.21958,2.60117 1.69482,2.85844 4.55608,2.4666 4.422247,-0.6056 10.643127,1.28926 13.350994,4.06664 2.057152,2.10996 2.231744,2.89081 1.887251,8.4401 -0.325237,5.23903 -0.732028,6.42591 -2.839573,8.28529 -2.542229,2.24287 -6.922518,3.75916 -14.328539,4.95995 -2.497869,0.40498 -5.438861,1.69332 -7.060675,3.09303 -1.705927,1.47234 -3.459644,2.21652 -4.540311,1.92663 -1.73005,-0.46404 -7.364401,3.00408 -7.364401,4.53303 0,0.41576 2.655105,0.75596 5.90027,0.75596 3.809249,0 5.900251,0.37589 5.900251,1.06071 0,0.7226 -1.415858,0.88872 -4.441608,0.52118 -2.442907,-0.29665 -4.716504,-0.25759 -5.052378,0.0869 -0.335882,0.34449 -5.587726,0.74941 -11.67066,0.89974 -6.082963,0.15026 -12.489622,0.32584 -14.237,0.39004 -1.747385,0.064 -5.307808,-0.2129 -7.912067,-0.61585 -3.385527,-0.52375 -5.584502,-0.36494 -7.715718,0.55722 l -2.980797,1.28978 5.44641,0.59722 c 10.828054,1.18738 43.29319,0.85917 49.634911,-0.50176 3.334644,-0.71563 6.506876,-1.58251 7.049421,-1.92641 1.846874,-1.17073 -0.04805,-2.35858 -3.862368,-2.421 l -3.804286,-0.0623 4.041764,-1.29175 c 2.998187,-0.95823 4.357169,-1.02326 5.26328,-0.25195 1.937409,1.64916 0.923983,4.79931 -2.043149,6.35103 -1.497795,0.7833 -3.747681,2.12668 -4.999793,2.98532 -3.016713,2.06869 -11.293791,2.43286 -39.479196,1.73703 z m 23.031681,-14.9228 c 4.958241,-1.5145 7.070489,-3.42758 9.546427,-8.64623 2.238351,-4.71796 5.957516,-18.04255 5.986641,-21.44837 0.01368,-1.4009 -0.908754,-1.63294 -6.567094,-1.65508 -8.229001,-0.0316 -45.685076,-2.57568 -48.911307,-3.32137 -1.336918,-0.30896 -2.660317,-0.10346 -3.003712,0.46632 -0.386139,0.64082 0.332103,1.043 1.93601,1.08417 1.402412,0.0359 3.36679,0.42853 4.365329,0.87234 1.194743,0.53103 0.382158,0.6303 -2.376592,0.2903 -2.900475,-0.35741 -4.414663,-0.14709 -4.914536,0.68242 -0.52659,0.87395 -0.281323,1.02537 0.904772,0.55855 1.404711,-0.55288 1.552514,-0.25723 1.080848,2.1618 -0.500594,2.56706 -0.402336,2.70993 1.170487,1.70247 1.324157,-0.84819 2.201137,-0.84204 3.833688,0.0281 2.080072,1.10714 2.073484,1.11798 -0.379478,0.6241 -3.4164,-0.68787 -3.4164,2.08234 0,2.8552 4.284192,0.96917 4.468871,1.36061 0.453859,0.96199 -3.666333,-0.36396 -3.857193,-0.26039 -3.84398,2.08878 0.01718,2.89541 1.700207,5.86247 2.373739,4.18248 0.318724,-0.7953 1.08304,-0.7351 2.881024,0.22696 1.345908,0.72018 3.546294,1.31202 4.8898,1.31519 1.343469,0.003 2.695143,0.4247 3.003704,0.93677 0.333823,0.55408 -0.747026,0.93102 -2.669649,0.93102 -3.37142,0 -4.56788,2.06756 -1.821898,3.14839 0.774812,0.30508 1.176631,0.16926 0.892936,-0.30157 -1.262158,-2.09469 1.409894,-1.72405 2.755387,0.38215 0.828237,1.2965 2.377998,2.4059 3.44388,2.4653 1.534191,0.0855 1.60703,0.1967 0.349502,0.53378 -1.948117,0.52217 -2.028912,1.83264 -0.22712,3.6809 1.210284,1.2414 1.361581,1.17365 1.361581,-0.60961 0,-2.70001 1.832263,-1.95588 4.084829,1.65897 1.06736,1.7129 2.37652,2.74967 3.177065,2.51608 0.748875,-0.21852 1.970625,-0.007 2.714972,0.47329 1.552543,0.99873 8.99799,0.53326 13.508682,-0.84453 z M 20.432068,262.16935 c 0,-0.51207 0.395944,-1.55951 0.879934,-2.32761 0.483947,-0.76809 0.879935,-0.97758 0.879935,-0.46551 0,0.51207 -0.395988,1.5595 -0.879935,2.3276 -0.48399,0.7681 -0.879934,0.97759 -0.879934,0.46552 z m 19.362873,15.82768 c -0.287502,-0.7681 -0.683003,-1.39657 -0.879214,-1.39657 -0.19624,0 -0.356767,0.62847 -0.356767,1.39657 0,0.76811 0.395676,1.39655 0.879244,1.39655 0.483575,0 0.644137,-0.62844 0.356737,-1.39655 z m -7.781284,-1.76817 c -0.643724,-0.71648 -1.313486,-1.16331 -1.488288,-0.99299 -0.538396,0.52459 0.826177,2.29565 1.768795,2.29565 0.489471,0 0.363252,-0.58621 -0.280646,-1.30266 z m -3.439797,-3.40752 c 0,-0.48183 -0.408471,-0.87609 -0.907727,-0.87609 -0.499247,0 -0.90772,0.6532 -0.90772,1.45154 0,0.79829 0.408473,1.19255 0.90772,0.87606 0.499256,-0.31635 0.907727,-0.96963 0.907727,-1.45151 z m 57.456437,-2.85983 c 5.857249,-1.20649 7.759053,-2.91822 8.509057,-7.65866 0.703866,-4.44889 -1.249055,-7.39152 -5.842289,-8.80299 -4.389963,-1.34907 -9.290049,-1.44155 -9.290049,-0.17559 0,0.5121 2.013195,0.93106 4.473844,0.93106 5.320773,0 7.326696,1.63555 7.326696,5.97395 0,3.83482 -2.007641,5.73547 -7.979686,7.55452 -4.823681,1.46925 -7.018375,3.23024 -4.025815,3.23024 0.944679,0 4.017414,-0.47371 6.828242,-1.05271 z m -61.33696,-2.67144 c 0.07514,-1.02414 -0.24633,-1.86209 -0.714567,-1.86209 -0.976613,0 -1.14929,2.17713 -0.24633,3.10349 0.821779,0.84284 0.806201,0.863 0.960729,-1.2414 z m 61.142468,-2.8504 c 2.494062,-1.34074 3.726992,-3.51056 3.116237,-5.48426 -0.497121,-1.60652 -1.349577,-1.90678 -5.413645,-1.90678 h -4.823615 l -1.015485,4.13645 c -0.55854,2.27503 -1.015487,4.4067 -1.015487,4.73702 0,0.74059 7.180169,-0.42244 9.151995,-1.48243 z M 42.255794,233.18155 c -2.974994,-3.87919 -2.421915,-6.90512 2.174413,-11.896 6.509962,-7.06878 6.450162,-13.49691 -0.177721,-19.1004 -3.364009,-2.8441 -2.804822,-4.41863 1.202845,-3.38696 2.530634,0.65145 7.630359,8.13314 7.622301,11.18244 -0.01026,4.15626 -2.000267,8.8544 -5.45211,12.8766 -4.09398,4.77041 -4.436857,6.80627 -1.738831,10.32432 1.86406,2.43064 1.864679,2.45316 0.06588,2.45316 -0.998503,0 -2.662073,-1.10391 -3.696842,-2.45316 z m 10.368043,-1.27933 c -1.643187,-2.727 3.201051,-7.43999 7.647212,-7.43999 2.577389,0 1.488075,2.35188 -1.720693,3.71513 -1.414348,0.60089 -2.776453,1.89616 -3.026867,2.87839 -0.491393,1.9273 -1.985584,2.36346 -2.899652,0.84647 z M 33.626314,222.4053 c -1.879399,-2.75209 -0.116997,-4.87451 1.816678,-2.18756 1.483177,2.06112 1.711665,4.24449 0.444222,4.24449 -0.470945,0 -1.488352,-0.92561 -2.2609,-2.05693 z"
       id="path85" />
  </g>
</svg>
