<?xml version="1.0" encoding="UTF-8" standalone="no"?>
<svg
   xmlns:dc="http://purl.org/dc/elements/1.1/"
   xmlns:cc="http://creativecommons.org/ns#"
   xmlns:rdf="http://www.w3.org/1999/02/22-rdf-syntax-ns#"
   xmlns:svg="http://www.w3.org/2000/svg"
   xmlns="http://www.w3.org/2000/svg"
   id="svg8"
   version="1.1"
   viewBox="0 0 100 100"
   height="100mm"
   width="100mm">
  <defs
     id="defs2" />
  <metadata
     id="metadata5">
    <rdf:RDF>
      <cc:Work
         rdf:about="">
        <dc:format>image/svg+xml</dc:format>
        <dc:type
           rdf:resource="http://purl.org/dc/dcmitype/StillImage" />
        <dc:title></dc:title>
      </cc:Work>
    </rdf:RDF>
  </metadata>
  <g
     transform="translate(0,-197)"
     id="layer1">
    <path
       style="fill:#000000;stroke-width:0.93331927"
       d="m 19.935683,293.7807 c -1.110403,-1.30324 -4.150626,-2.48929 -8.826782,-3.44343 -7.9670388,-1.62566 -10.95802339,-3.77494 -9.5566501,-6.86726 0.7159102,-1.57974 1.8747056,-1.90083 6.8594939,-1.90083 5.9490552,0 5.9936882,-0.0192 5.4658202,-2.50432 -0.878862,-4.13524 5.173412,-13.28863 12.493973,-18.89573 l 2.11777,-1.62207 -2.11777,-1.31896 c -2.864128,-1.78375 -3.448702,-3.08297 -2.414229,-5.36564 0.479567,-1.05825 0.638459,-3.0226 0.353133,-4.36525 -0.343653,-1.61688 -0.150937,-2.44325 0.571108,-2.44739 0.599443,-0.003 2.186,-0.68138 3.525633,-1.50652 2.051457,-1.26357 2.619707,-1.28308 3.601628,-0.12344 0.641218,0.75725 2.115823,1.16236 3.276926,0.90024 1.610773,-0.36379 2.251732,0.0468 2.704648,1.73208 0.558351,2.07758 1.034737,2.19056 8.028815,1.90432 4.08941,-0.16753 8.304825,0.0552 9.367675,0.4945 1.555327,0.64294 1.932386,0.42942 1.932386,-1.09432 0,-2.3353 5.52746,-5.04624 7.127065,-3.49544 0.567568,0.55029 1.998159,1.15834 3.179059,1.35123 2.677906,0.43747 3.364766,4.86447 1.325124,8.54066 -1.847053,3.32904 -0.418022,7.10045 2.089854,5.51541 4.531708,-2.86416 11.214592,0.53791 12.899407,6.56677 0.567795,2.03166 0.887268,5.49008 0.710003,7.68538 l -0.322331,3.99149 h 5.655742 c 6.075872,0 9.203935,1.62839 8.324846,4.33373 -0.295062,0.90825 -3.74471,2.79796 -8.083829,4.42842 -4.162992,1.56422 -8.766503,4.03745 -10.230008,5.49602 -2.632717,2.62384 -2.855234,2.65911 -20.965445,3.3252 -31.683176,1.16524 -37.136267,0.98185 -39.093065,-1.31481 z m 5.80246,-0.86708 c 0.184047,0.65218 0.794981,0.84979 1.357551,0.4392 1.940019,-1.41599 1.014449,-2.65536 -1.983094,-2.65536 -2.130008,0 -3.005944,0.45372 -3.005944,1.55704 0,1.22098 0.355827,1.33219 1.648393,0.51525 1.179248,-0.74532 1.743666,-0.70438 1.983094,0.14375 z m 8.323517,-0.94834 c 0.833743,-1.69046 0.876655,-1.69046 0.90155,0 0.02599,1.66615 1.757528,2.43485 2.776518,1.23151 0.253191,-0.299 8.761019,-0.64121 18.906535,-0.7607 18.881112,-0.22233 21.285246,-0.71918 21.285246,-4.39848 0,-1.04701 -1.434937,-1.39719 -5.725628,-1.39719 -3.149094,0 -5.451239,-0.32392 -5.11586,-0.7201 0.33538,-0.39607 3.495479,-0.59322 7.022414,-0.43808 6.452803,0.28367 15.191029,-1.84693 16.305164,-3.97585 0.67871,-1.29688 -51.684489,-0.12075 -53.868838,1.21009 -0.795599,0.48466 -7.297481,0.88118 -14.448631,0.88118 -11.919365,0 -12.9782505,0.14797 -12.7159071,1.77494 0.3194095,1.98026 5.6381161,2.9889 16.8019351,3.18624 3.516386,0.0621 6.226618,0.55155 6.226618,1.12434 0,0.55783 -0.38647,1.01428 -0.858833,1.01428 -0.472358,0 -0.858865,0.6846 -0.858865,1.52136 0,2.09085 2.295623,1.91792 3.366582,-0.25339 z m 15.528011,-5.32486 c -0.977607,-0.74606 -0.615122,-0.98691 1.502972,-0.99871 1.535175,-0.008 2.791223,0.44087 2.791223,0.99871 0,1.28833 -2.606166,1.28833 -4.294195,0 z M 7.4251173,284.75983 c -1.2692915,-0.51517 -1.914082,0.52966 -1.185706,1.92142 0.461745,0.88233 0.8099493,0.83422 1.346742,-0.18592 0.425227,-0.80832 0.358781,-1.52435 -0.1610041,-1.73535 z m 12.3938707,-5.79314 c -0.934562,-2.87609 12.295513,-16.82801 19.57485,-20.64293 l 3.754481,-1.96764 -3.091223,-0.0717 c -5.891789,-0.13647 -21.771563,11.58092 -22.671651,16.7291 -0.237613,1.35855 -0.632457,3.61109 -0.877629,5.00572 -0.380858,2.16621 -0.134385,2.5356 1.690723,2.5356 1.586234,0 2.003606,-0.40906 1.620449,-1.58821 z m 9.262167,-2.9605 c 1.464283,-1.96948 6.194615,-6.14674 10.511857,-9.28276 4.317247,-3.13599 8.008208,-5.86817 8.202125,-6.07149 0.489016,-0.51268 -2.59939,-4.43911 -3.491659,-4.43911 -0.399163,0 -0.725745,0.68008 -0.725745,1.51128 0,0.87444 -2.310032,2.74824 -5.481918,4.4467 -5.188472,2.77825 -14.06826,10.15704 -15.241146,12.66485 -0.297013,0.63531 -0.824394,2.24952 -1.17172,3.58714 -0.592853,2.28318 -0.467229,2.39327 2.052171,1.79821 1.536309,-0.36302 3.821932,-2.16487 5.346035,-4.21482 z m 9.483064,0.38599 c 2.285068,-1.73167 4.154681,-3.55732 4.154681,-4.057 0,-0.49973 0.605774,-0.90856 1.346159,-0.90856 0.955303,0 1.18785,0.58896 0.800957,2.02852 -0.589576,2.1937 1.55358,2.96893 2.612734,0.94513 0.311941,-0.5959 1.107605,-0.83841 1.768369,-0.53898 1.679882,0.76127 1.496318,-0.70845 -0.413253,-3.30857 -1.077909,-1.46777 -2.123942,-1.96776 -3.146832,-1.50422 -1.050935,0.47626 -1.337167,0.32162 -0.911225,-0.49225 0.341546,-0.65263 1.950863,-1.18662 3.576282,-1.18662 3.045257,0 3.456526,-0.53844 2.199763,-2.88 -0.589021,-1.09746 -1.453274,-0.9245 -4.495781,0.89966 -5.83106,3.49606 -17.07866,12.21217 -17.07866,13.23477 0,2.06831 5.647204,0.75361 9.586806,-2.23188 z m 10.464475,1.88284 c -0.219431,-0.4196 -1.072097,-0.76288 -1.894485,-0.76288 -0.822383,0 -1.93752,-0.5223 -2.478081,-1.16067 -0.737855,-0.87137 -1.641484,-0.83848 -3.625548,0.13225 -4.603574,2.25193 -3.852448,3.14304 2.396248,2.84273 3.300591,-0.1587 5.821424,-0.63167 5.601866,-1.05123 z m 18.596691,-0.47633 c 0.236311,-0.25875 0.356933,-3.57058 0.268446,-7.35936 -0.183076,-7.83124 -1.869612,-13.53871 -4.489865,-15.19478 -2.149418,-1.35852 -2.247645,-0.42577 -0.412602,3.91823 1.301135,3.08013 1.185642,9.49517 -0.250592,13.91493 -0.986855,3.03697 -1.9246,1.14473 -1.451754,-2.92937 1.017402,-8.76599 -3.978586,-20.02103 -8.887125,-20.02103 -2.091802,0 -2.116146,0.0751 -0.740773,2.2821 4.62552,7.4226 7.667267,19.88594 5.786427,23.70941 -0.750353,1.52527 -0.940083,0.69909 -0.961214,-4.18504 -0.02599,-6.10434 -2.518622,-13.59242 -6.225676,-18.70533 -2.447242,-3.37538 -9.093876,-3.94169 -12.694817,-1.08159 -1.145133,0.90955 -1.145133,1.13419 0,2.02196 0.708542,0.54929 2.873475,1.00569 4.810963,1.01424 2.742145,0.0115 4.128031,0.69868 6.25448,3.0985 2.344342,2.64581 2.841144,4.11212 3.503365,10.34028 0.500862,4.7109 0.467398,7.92854 -0.09543,9.17045 -0.830852,1.83332 -0.532706,1.88319 7.144824,1.1951 4.406539,-0.39492 8.205102,-0.92983 8.441281,-1.1887 z m 5.543817,-2.56861 c -0.636025,-2.48607 -1.889283,-4.43466 -2.402737,-3.73584 -0.177557,0.24189 -0.577889,1.69467 -0.889507,3.22872 -0.507124,2.49631 -0.333368,2.78918 1.654723,2.78918 1.904056,0 2.137964,-0.32584 1.637521,-2.28206 z m 9.605278,-3.21001 c -0.731101,-7.34613 -1.196128,-8.5262 -4.04555,-10.26634 -3.278614,-2.00225 -8.527015,-1.97914 -8.527015,0.0383 0,0.85749 0.768143,1.5214 1.760318,1.5214 3.1937,0 6.928183,3.07783 8.24279,6.79347 0.882239,2.49358 1.003284,3.94203 0.389915,4.66636 -0.613337,0.72435 -1.046097,0.44682 -1.394137,-0.89415 -1.192005,-4.59279 -2.734512,-6.95458 -5.37129,-8.22416 -2.487169,-1.19752 -2.877148,-1.15957 -3.360219,0.32698 -0.342197,1.05308 0.06752,2.18278 1.096054,3.02191 3.200999,2.61169 3.789633,3.54574 3.789633,6.01345 0,2.2926 0.323952,2.49562 3.983033,2.49562 h 3.983032 z M 32.842194,254.67759 c 0,-1.10804 0.852015,-2.83016 1.893338,-3.82688 1.886916,-1.80615 1.834947,-5.26919 -0.06686,-4.4485 -0.532282,0.22961 -1.608958,-0.24074 -2.392643,-1.0451 -1.24401,-1.2771 -1.758111,-1.25927 -4.049933,0.1403 -1.720947,1.05097 -2.455717,2.12435 -2.133322,3.11651 0.597432,1.83865 2.595522,1.99567 3.124787,0.24572 0.210989,-0.69729 0.684617,-0.93653 1.052782,-0.53161 0.368161,0.40488 0.217807,1.37852 -0.333759,2.16361 -0.782288,1.11318 -0.714677,1.55816 0.307076,2.02119 0.720616,0.32661 1.310192,1.05016 1.310192,1.608 0,0.55783 -0.579709,0.75154 -1.288283,0.43045 -1.316586,-0.59667 -1.77155,0.75288 -0.685982,2.03484 1.13929,1.34545 3.262512,0.10351 3.262512,-1.90837 z m 35.226081,-3.60853 c 0.615704,-3.31045 0.203848,-4.57627 -1.163961,-3.57794 -0.459442,0.33542 -0.63333,1.52209 -0.386406,2.63723 0.260982,1.17807 0.02599,2.02748 -0.56075,2.02748 -0.555329,0 -0.770832,0.4564 -0.478884,1.01424 0.979487,1.87166 2.006041,1.03893 2.590001,-2.10101 z m -6.454814,-0.43459 c 0,-0.83679 0.579736,-1.5214 1.288278,-1.5214 1.31214,0 1.76045,-2.14705 0.707864,-3.3901 -0.759018,-0.89637 -4.572677,3.34736 -4.572677,5.08829 0,0.73951 0.579741,1.34457 1.288283,1.34457 0.708542,0 1.288252,-0.68461 1.288252,-1.52136 z M 36.205495,236.18133 c -0.03245,-2.64972 -0.366768,-6.50447 -0.742561,-8.56607 -0.735808,-4.03683 -0.07466,-8.92978 1.206418,-8.92978 0.433669,0 0.581557,1.50591 0.328662,3.34648 -0.252868,1.84056 0.141848,5.73974 0.877528,8.66489 1.034833,4.11516 1.119879,5.8822 0.375989,7.81032 -1.423578,3.6898 -1.979749,3.05756 -2.046036,-2.32584 z m 10.807641,0.87003 c 0,-0.56355 0.568737,-3.60328 1.263876,-6.75494 1.169832,-5.30408 1.130428,-6.44686 -0.529752,-15.36177 -1.818108,-9.76274 -1.568522,-15.36057 0.725062,-16.26345 0.723087,-0.28482 0.867567,1.16715 0.516249,5.18693 -0.332521,3.80491 -0.04123,7.19532 0.915476,10.64891 1.720391,6.21159 1.80719,14.25886 0.202551,18.79388 -1.199532,3.39029 -3.093594,5.68657 -3.093594,3.75044 z m 14.153152,-8.73049 c 1.181779,-3.26915 0.628852,-7.75488 -1.246408,-10.11223 -2.110985,-2.65367 -2.183439,-3.91317 -0.329636,-5.73008 1.255529,-1.23056 1.344211,-1.13131 0.799691,0.89483 -0.426529,1.5871 -0.07304,3.08868 1.16438,4.9465 2.154256,3.23427 2.323311,8.72055 0.327783,10.63748 -1.291332,1.24049 -1.36927,1.17122 -0.71581,-0.6365 z"
       id="path125" />
  </g>
</svg>
