<?xml version="1.0" encoding="UTF-8" standalone="no"?>
<svg
   xmlns:dc="http://purl.org/dc/elements/1.1/"
   xmlns:cc="http://creativecommons.org/ns#"
   xmlns:rdf="http://www.w3.org/1999/02/22-rdf-syntax-ns#"
   xmlns:svg="http://www.w3.org/2000/svg"
   xmlns="http://www.w3.org/2000/svg"
   id="svg8"
   version="1.1"
   viewBox="0 0 100 100"
   height="100mm"
   width="100mm">
  <defs
     id="defs2" />
  <metadata
     id="metadata5">
    <rdf:RDF>
      <cc:Work
         rdf:about="">
        <dc:format>image/svg+xml</dc:format>
        <dc:type
           rdf:resource="http://purl.org/dc/dcmitype/StillImage" />
        <dc:title></dc:title>
      </cc:Work>
    </rdf:RDF>
  </metadata>
  <g
     transform="translate(0,-197)"
     id="layer1">
    <path
       style="fill:#000000;stroke-width:0.86156815"
       d="m 92.600615,286.42896 -2.115139,-1.11793 0.394179,-14.12378 c 0.553562,-19.83622 0.578657,-19.48836 -1.915063,-26.56809 -1.237361,-3.51286 -2.243107,-8.18567 -2.235034,-10.38406 0.03242,-8.75174 5.904611,-24.21164 8.826653,-23.23737 0.646548,0.21553 1.092859,2.70614 1.211715,6.76209 0.103424,3.53147 0.642331,13.81945 1.197452,22.86225 1.251172,20.38259 1.591144,41.80091 0.702018,44.23026 -0.858162,2.34476 -3.375681,2.999 -6.066781,1.57663 z m 5.265844,-6.05244 c 0,-1.16177 -0.386009,-2.11229 -0.857805,-2.11229 -0.471797,0 -0.857802,0.37719 -0.857802,0.83817 0,0.46102 -0.579046,0.61405 -1.286742,0.34011 -1.689831,-0.65414 -1.63692,0.45844 0.114771,2.41087 1.72388,1.92155 2.887709,1.32634 2.887709,-1.47686 z m -0.808234,-9.46764 -0.627871,-3.46137 -0.662918,3.23853 c -0.36461,1.78114 -0.40154,3.92287 -0.08203,4.75935 1.03888,2.72009 2.070721,-0.68951 1.372885,-4.53651 z m -1.765213,-4.75936 c 0,-0.95186 0.386043,-1.73068 0.85784,-1.73068 0.471796,0 0.857802,-2.1417 0.857802,-4.75936 0,-5.74386 -1.159127,-6.1729 -2.471609,-0.91481 -1.190773,4.77047 -1.239438,9.1355 -0.101805,9.1355 0.471796,0 0.857806,-0.77878 0.857806,-1.73065 z m 0.449523,-22.85148 c -0.348951,-3.37551 -0.897228,-11.19956 -1.21836,-17.38672 l -0.583911,-11.24938 -1.799028,3.89401 c -0.989435,2.14172 -2.296278,6.50385 -2.90408,9.69362 -1.0132,5.31737 -0.947966,6.39184 0.784499,12.92146 2.094129,7.89286 3.039828,9.5478 5.018278,8.78196 1.123009,-0.43475 1.235513,-1.50012 0.702602,-6.65495 z m -55.778588,42.98548 c -2.290602,-0.57857 -5.767566,-3.04476 -12.175484,-8.63605 -8.963372,-7.82112 -12.13068,-17.08764 -10.402754,-30.43495 1.654463,-12.77967 6.819867,-19.62435 19.546938,-25.90172 6.208173,-3.06205 6.817078,-3.18689 15.469628,-3.17173 8.64214,0.0164 9.230687,0.1377 14.527105,3.02869 6.385743,3.4854 10.322637,8.54418 14.803202,19.02164 2.3559,5.50912 2.776892,7.53633 2.785291,13.41273 0.0097,5.8634 -0.354952,7.65097 -2.374414,11.68203 -6.472017,12.91904 -8.410231,15.0226 -17.985716,19.51992 -3.888848,1.82645 -5.624656,2.08479 -13.471109,2.0047 -4.953886,-0.0507 -9.779094,-0.28684 -10.722687,-0.52526 z M 58.2791,281.75006 c 5.99659,-1.14722 14.315491,-5.40131 14.16269,-7.24251 -0.06549,-0.78944 0.22403,-1.43535 0.643335,-1.43535 0.419402,0 0.762519,0.44192 0.762519,0.98206 0,1.76519 3.437444,-3.37677 5.685704,-8.50508 1.388216,-3.16657 2.370777,-7.31053 2.665522,-11.24202 0.459473,-6.12868 0.397904,-6.3691 -3.908948,-15.26418 -4.981088,-10.28758 -8.013915,-13.77714 -14.730841,-16.94923 -3.910308,-1.84666 -5.978078,-2.23134 -12.014645,-2.23517 -6.613113,-0.003 -7.889932,0.28519 -13.725033,3.11041 -3.538498,1.71325 -8.39214,4.6859 -10.785873,6.60586 -8.425405,6.75781 -10.18744,18.37015 -5.09022,33.54597 1.867213,5.55927 3.194997,7.83548 6.741636,11.55723 5.923252,6.21568 9.546372,7.77541 18.238897,7.85175 3.827923,0.0337 8.937789,-0.31726 11.355257,-0.77974 z m -21.738328,-5.43284 c -0.341302,-0.83288 -1.497026,-1.51433 -2.568294,-1.51433 -2.393213,0 -4.521026,-2.28884 -3.285999,-3.5347 0.57188,-0.5769 1.223809,-0.42043 1.95585,0.46932 0.603943,0.73408 1.834952,1.33469 2.735584,1.33469 1.756588,0 2.861833,1.8388 2.193369,3.64914 -0.288226,0.78048 -0.594251,0.66046 -1.03051,-0.40412 z m 29.30061,-1.22591 c -1.08754,-1.09704 -0.565231,-2.01911 1.143731,-2.01911 2.025683,0 2.156376,-0.79187 0.506388,-3.06812 -1.124924,-1.55191 -1.319322,-1.56945 -2.78788,-0.25151 -3.676843,3.29997 -18.061131,4.56601 -22.907641,2.01621 -1.351388,-0.71099 -3.011131,-1.29269 -3.688316,-1.29269 -5.539192,0 -11.664753,-9.83866 -11.561364,-18.56947 0.06744,-5.6998 1.496213,-9.26112 5.647803,-14.07805 3.791709,-4.39936 11.379315,-7.16073 19.655158,-7.15314 11.159696,0.01 16.941848,3.90096 20.602382,13.86314 1.239598,3.37359 2.253807,7.2686 2.253807,8.65562 0,2.99548 -3.383042,11.05229 -5.565126,13.25351 -1.452901,1.46567 -1.457604,1.64035 -0.08073,3.00853 1.369089,1.36049 1.539915,1.3461 2.695999,-0.22731 1.134587,-1.544 1.234315,-1.55492 1.234315,-0.1354 0,0.84944 -0.772053,1.74806 -1.715641,1.99698 -0.943593,0.24889 -1.715642,1.14431 -1.715642,1.98975 0,0.84544 -0.610595,1.77353 -1.356866,2.06242 -1.680108,0.65038 -1.664061,0.65074 -2.360341,-0.0516 z m -4.360641,-5.72745 c 6.439045,-3.78692 8.939121,-8.53251 8.930853,-16.95222 -0.0097,-9.0703 -2.800071,-14.79107 -8.745206,-17.92421 -2.800884,-1.47607 -14.2086,-1.62812 -19.112492,-0.25478 -12.029689,3.36898 -16.883911,14.99937 -10.570111,25.32534 3.482053,5.69474 8.525296,9.46463 13.555956,10.13326 6.803657,0.90428 14.101638,0.75439 15.941,-0.32739 z M 24.243345,240.81294 c -0.966445,-1.183 -0.869539,-1.62436 0.64334,-2.93112 0.979612,-0.84612 1.781134,-2.43759 1.781134,-3.5366 0,-2.0216 2.138154,-3.57566 3.253772,-2.36497 0.333519,0.36192 0.123849,0.83186 -0.465893,1.04436 -0.589746,0.21259 -1.072272,1.52205 -1.072272,2.91021 0,1.61203 -0.443332,2.52389 -1.227051,2.52389 -0.674885,0 -1.350413,0.84306 -1.501176,1.87349 -0.246726,1.68588 -0.388051,1.73401 -1.411854,0.48074 z m -0.57791,-4.95023 c -0.291469,-0.47594 -0.121255,-0.86534 0.378293,-0.86534 0.499646,0 0.908449,0.3894 0.908449,0.86534 0,0.47593 -0.170212,0.86533 -0.378292,0.86533 -0.208148,0 -0.61685,-0.3894 -0.90845,-0.86533 z m 45.337551,-3.45555 c -2.269498,-0.92374 -3.194348,-2.30102 -2.031849,-3.02577 0.479479,-0.29893 0.871812,-0.13115 0.871812,0.37287 0,0.50404 0.730711,0.91642 1.623854,0.91642 0.893113,0 1.846041,0.58408 2.117601,1.29803 0.552171,1.45147 0.09726,1.52872 -2.581418,0.43845 z M 4.91879,283.06493 c -2.596792,-2.42774 -2.5412537,-2.10383 -1.4266054,-8.31945 0.4637531,-2.58606 1.0454266,-7.23304 1.2926074,-10.32664 0.2473715,-3.09359 0.8135482,-8.63793 1.2585625,-12.32078 0.7662476,-6.3413 0.6863937,-6.96029 -1.5070738,-11.68208 C 2.5364982,236.1112 2.180707,234.10007 1.9318058,225.695 c -0.1585381,-5.35427 0.053822,-9.73506 0.4717961,-9.73506 1.9406126,0 2.8188437,2.46443 2.8188437,7.91006 0,3.20826 0.3887345,6.07556 0.8638699,6.37178 1.4735838,0.9187 1.7694252,-1.5075 1.0312561,-8.45742 -0.7545094,-7.10374 -0.3248268,-8.9939 1.8528809,-8.15091 1.5926695,0.6165 1.9887275,2.24979 2.7163275,11.20133 0.35602,4.38004 0.860526,6.51513 1.452281,6.14618 0.600964,-0.37468 0.722935,-3.59651 0.361596,-9.55346 -0.475944,-7.847 -0.366847,-9.05718 0.859264,-9.5318 2.863228,-1.10836 3.729721,2.06657 3.729721,13.66649 v 11.00211 l -3.074584,3.71232 c -2.90544,3.50808 -3.035255,3.92923 -2.359011,7.6536 0.393596,2.16766 0.668792,10.45564 0.611503,18.41766 -0.08527,11.87677 -0.35855,14.86815 -1.520952,16.65774 -1.7864181,2.75036 -3.9294367,2.76897 -6.827808,0.0592 z m 6.077545,-2.85368 c 0.873171,-3.14968 0.845288,-24.22387 -0.04182,-31.48806 -0.6848,-5.60873 -0.639801,-5.81503 1.907707,-8.74189 2.070852,-2.37924 2.707509,-4.05043 3.08629,-8.10113 0.459083,-4.90925 0.435449,-4.9882 -0.62097,-2.07481 -0.721438,1.98961 -1.730909,3.11963 -2.942433,3.29385 -1.755099,0.25248 -1.874082,-0.17629 -2.4614601,-8.86972 -0.3394846,-5.02418 -0.8742773,-9.13488 -1.188438,-9.13488 -0.3141649,0 -0.4161604,3.89403 -0.2266283,8.65337 0.3337809,8.38373 0.2869298,8.65338 -1.4985136,8.65338 -1.0869893,0 -2.1925269,-0.7987 -2.6950246,-1.94703 -0.6611714,-1.51093 -0.7646924,-0.96894 -0.4623293,2.42009 0.4621641,5.18002 2.1283014,9.26918 3.5521481,8.71799 0.6851945,-0.26524 1.1972904,1.32501 1.5628409,4.85286 0.6066035,5.85455 0.5667909,23.59033 -0.047661,21.21859 -0.2156019,-0.83288 -0.7500047,-1.51434 -1.1872049,-1.51434 -1.1997186,0 -0.9538346,3.26314 0.2772043,3.68118 0.8171162,0.27736 0.7660824,0.73991 -0.2143051,1.9435 -0.9853839,1.20957 -1.0343708,1.66513 -0.2091185,1.94531 0.5926956,0.20114 0.8691202,0.70615 0.6142864,1.12209 -0.2548297,0.41592 0.029197,1.55088 0.6299146,2.5221 0.8763157,1.41547 0.8806296,2.10926 0.022714,3.49655 -0.8913635,1.43979 -0.856704,1.73067 0.2061987,1.73067 0.7027002,0 1.5745124,-1.07085 1.9373364,-2.37967 z m 4.73712,-65.24363 c -0.475881,-0.48006 -0.601773,0.32718 -0.319353,2.04681 0.394927,2.40298 0.515758,2.52484 0.78586,0.79272 0.1754,-1.12576 -0.03436,-2.40354 -0.466639,-2.83953 z"
       id="path165" />
  </g>
</svg>
